<?xml version="1.0" encoding="utf-8"?>
<!-- Generator: Adobe Illustrator 23.0.5, SVG Export Plug-In . SVG Version: 6.00 Build 0)  -->
<svg version="1.1" id="Capa_1" xmlns="http://www.w3.org/2000/svg" xmlns:xlink="http://www.w3.org/1999/xlink" x="0px" y="0px"
	 viewBox="0 0 60 60" style="enable-background:new 0 0 60 60;" xml:space="preserve">
<style type="text/css">
	.st0{fill:#FCFCFC;}
	.st1{fill:#424242;}
</style>
<g>
	<path d="M24.62,30.75c-3.94,2.88-7.87,5.8-11.81,8.68c-0.08,0.08-0.2,0.08-0.45,0.16V20.28c0.32-0.2,0.49,0.08,0.69,0.24
		c3.81,3,7.63,6.04,11.48,9.09C25.03,30.02,25.31,30.22,24.62,30.75z"/>
	<path d="M45.23,40.61c0.53,0.12,0.81,0.57,1.34,0.93h-32.7c0-0.61,0.24-0.77,0.61-0.89c3.89-2.92,7.83-5.8,11.72-8.76
		c0.49-0.36,0.85-0.36,1.26,0.04c0.16,0.16,0.36,0.28,0.53,0.41c1.7,1.38,1.78,1.46,3.41,0c0.97-0.81,1.58-0.81,2.6-0.04
		C37.69,35.13,41.46,37.85,45.23,40.61z"/>
	<path d="M14.89,19.23h30.1c-0.37,0.65-0.93,0.93-1.38,1.26c-4.3,3.37-8.64,6.69-12.94,10.1c-0.77,0.61-1.22,0.57-1.99-0.04
		c-4.22-3.45-8.52-6.82-12.82-10.22C15.54,20.04,15.13,19.88,14.89,19.23z"/>
	<path d="M34.85,29.7c4.22-3.25,8.36-6.49,12.74-9.9v20.08c-1.1-0.77-2.03-1.46-3-2.15c-3.16-2.31-6.33-4.62-9.49-6.94
		C34.73,30.51,34.04,30.3,34.85,29.7z"/>
	<path d="M29.94,0C13.35,0-0.04,13.43,0,30.1C0.04,46.61,13.47,60,30.02,60c16.55,0,30.06-13.47,30.02-30.06
		C60,13.39,46.57-0.04,29.94,0z M49.61,40.37c0,1.87-0.57,2.39-2.39,2.39H12.9c-1.99,0-2.47-0.49-2.47-2.39V19.68
		c0-1.95,0.53-2.47,2.43-2.47h34.32c1.83,0,2.39,0.53,2.43,2.35V40.37z"/>
	<path class="st0" d="M24.62,30.75c-3.94,2.88-7.87,5.8-11.81,8.68c-0.08,0.08-0.2,0.08-0.45,0.16V20.28
		c0.32-0.2,0.49,0.08,0.69,0.24c3.81,3,7.63,6.04,11.48,9.09C25.03,30.02,25.31,30.22,24.62,30.75z"/>
	<path class="st0" d="M45.23,40.61c0.53,0.12,0.81,0.57,1.34,0.93h-32.7c0-0.61,0.24-0.77,0.61-0.89c3.89-2.92,7.83-5.8,11.72-8.76
		c0.49-0.36,0.85-0.36,1.26,0.04c0.16,0.16,0.36,0.28,0.53,0.41c1.7,1.38,1.78,1.46,3.41,0c0.97-0.81,1.58-0.81,2.6-0.04
		C37.69,35.13,41.46,37.85,45.23,40.61z"/>
	<path class="st0" d="M14.89,19.23h30.1c-0.37,0.65-0.93,0.93-1.38,1.26c-4.3,3.37-8.64,6.69-12.94,10.1
		c-0.77,0.61-1.22,0.57-1.99-0.04c-4.22-3.45-8.52-6.82-12.82-10.22C15.54,20.04,15.13,19.88,14.89,19.23z"/>
	<path class="st0" d="M47.59,19.8v20.08c-1.1-0.77-2.03-1.46-3-2.15c-3.16-2.31-6.33-4.62-9.49-6.94c-0.37-0.28-1.05-0.49-0.24-1.1
		C39.07,26.45,43.21,23.21,47.59,19.8z"/>
	<path d="M44.99,19.23c-0.37,0.65-0.93,0.93-1.38,1.26c-4.3,3.37-8.64,6.69-12.94,10.1c-0.77,0.61-1.22,0.57-1.99-0.04
		c-4.22-3.45-8.52-6.82-12.82-10.22c-0.32-0.28-0.73-0.45-0.97-1.1H44.99z"/>
	<path d="M45.23,40.61c-0.12,0.73-0.73,0.69-1.22,0.69c-4.87-0.04-9.78,0.08-14.64-0.08c-4.5-0.16-8.97,0-13.47-0.04
		c-0.49,0-1.22,0.32-1.42-0.53c3.89-2.92,7.83-5.8,11.72-8.76c0.49-0.36,0.85-0.36,1.26,0.04c0.16,0.16,0.36,0.28,0.53,0.41
		c1.7,1.38,1.78,1.46,3.41,0c0.97-0.81,1.58-0.81,2.6-0.04C37.69,35.13,41.46,37.85,45.23,40.61z"/>
	<path d="M47.59,19.8v20.08c-1.1-0.77-2.03-1.46-3-2.15c-3.16-2.31-6.33-4.62-9.49-6.94c-0.37-0.28-1.05-0.49-0.24-1.1
		C39.07,26.45,43.21,23.21,47.59,19.8z"/>
	<path d="M24.62,30.75c-3.94,2.88-7.87,5.8-11.81,8.68c-0.08,0.08-0.2,0.08-0.45,0.16V20.28c0.32-0.2,0.49,0.08,0.69,0.24
		c3.81,3,7.63,6.04,11.48,9.09C25.03,30.02,25.31,30.22,24.62,30.75z"/>
	<path class="st1" d="M46.57,41.54h-32.7c0-0.61,0.24-0.77,0.61-0.89c0.41,0.41,0.93,0.24,1.38,0.24h27.99
		c0.49,0,1.01,0.16,1.38-0.28C45.76,40.73,46.04,41.18,46.57,41.54z"/>
</g>
</svg>
