<?xml version="1.0" encoding="utf-8"?>
<!-- Generator: Adobe Illustrator 23.0.5, SVG Export Plug-In . SVG Version: 6.00 Build 0)  -->
<svg version="1.1" id="Capa_1" xmlns="http://www.w3.org/2000/svg" xmlns:xlink="http://www.w3.org/1999/xlink" x="0px" y="0px"
	 viewBox="0 0 60 60" style="enable-background:new 0 0 60 60;" xml:space="preserve">
<g>
	<path d="M25.51,49.12c0,3.21-0.04,6.43,0.02,9.64c0.02,1.01-0.22,1.31-1.23,1.07C12.06,56.94,3.9,49.54,0.89,37.25
		C-3.47,19.43,8.63,2.42,26.82,0.2c14.72-1.79,29.16,8.49,32.4,23.08c3.74,16.84-6.39,32.8-23.18,36.48
		c-0.17,0.04-0.35,0.04-0.51,0.09c-1.18,0.39-1.51,0-1.5-1.26c0.06-6.34,0.07-12.68,0-19.02c-0.01-1.2,0.35-1.45,1.45-1.4
		c1.81,0.09,3.63,0,5.44,0.04c0.66,0.01,1.01-0.12,1.1-0.88c0.24-1.98,0.53-3.96,0.9-5.92c0.19-0.98-0.12-1.18-1.03-1.15
		c-2.25,0.06-4.49-0.01-6.74,0.03c-0.82,0.02-1.16-0.19-1.11-1.08c0.11-1.77-0.08-3.56,0.2-5.33c0.48-2.95,1.84-4.17,4.78-4.18
		c1.04,0,2.08-0.05,3.11,0.01c0.83,0.05,1.03-0.28,1-1.05c-0.05-1.65-0.04-3.3,0-4.95c0.01-0.62-0.12-1-0.8-1.04
		c-2.8-0.19-5.62-0.5-8.4,0.02c-4.83,0.91-7.67,4.25-8.23,9.4c-0.26,2.34-0.21,4.68-0.18,7.02c0.01,0.9-0.23,1.21-1.15,1.18
		c-1.77-0.07-3.54,0.01-5.31-0.03c-0.71-0.02-0.99,0.16-0.98,0.93c0.05,2.04,0.05,4.08,0,6.12c-0.02,0.81,0.33,0.9,0.99,0.89
		c1.81-0.03,3.63,0.03,5.44-0.03c0.82-0.03,1.02,0.25,1.01,1.03C25.48,42.52,25.51,45.82,25.51,49.12z"/>
</g>
</svg>
