<?xml version="1.0" encoding="utf-8"?>
<!-- Generator: Adobe Illustrator 23.0.5, SVG Export Plug-In . SVG Version: 6.00 Build 0)  -->
<svg version="1.1" id="Capa_1" xmlns="http://www.w3.org/2000/svg" xmlns:xlink="http://www.w3.org/1999/xlink" x="0px" y="0px"
	 viewBox="0 0 60 60" style="enable-background:new 0 0 60 60;" xml:space="preserve">
<g>
	<path d="M29.94,0C13.42,0.04,0,13.46,0,29.98C-0.04,46.58,13.42,60.04,30.02,60C46.54,60,60,46.54,60,30.02
		C60,13.46,46.54,0,29.94,0z M50.75,38.02c-0.19,7.16-5.87,12.7-13.04,12.77c-5.15,0.04-10.27,0.04-15.43,0
		c-7.35-0.08-13-5.8-13.08-13.11c-0.04-2.58,0-5.15,0-8.38c0.15-2.69-0.34-6.06,0.27-9.4c1.02-5.95,6.22-10.5,12.24-10.65
		c5.5-0.11,10.99-0.11,16.49,0c6.86,0.19,12.36,5.76,12.55,12.7C50.87,27.29,50.87,32.67,50.75,38.02z"/>
	<path d="M37.52,13.83c-5.04-0.04-10.04-0.04-15.09,0c-4.93,0.04-8.57,3.68-8.64,8.6c-0.04,5.04-0.04,10.04,0,15.09
		c0.08,5,3.71,8.6,8.72,8.64c4.97,0.04,9.97,0.04,14.93,0c5-0.04,8.64-3.68,8.72-8.64V22.55C46.09,17.55,42.49,13.87,37.52,13.83z
		 M30.09,41.54c-6.41,0.04-11.64-5.08-11.64-11.48c-0.04-6.37,5.08-11.52,11.41-11.56c6.41-0.08,11.6,5.04,11.64,11.48
		C41.54,36.31,36.42,41.5,30.09,41.54z M40.78,20.77c-0.83,0.04-1.63-0.76-1.55-1.59c0.11-0.91,0.61-1.48,1.55-1.44
		c0.95,0.04,1.44,0.57,1.48,1.52C42.19,20.16,41.69,20.69,40.78,20.77z"/>
	<path d="M36.92,30.02c0,3.79-3.11,6.9-6.9,6.94c-3.79,0.04-6.97-3.15-6.97-6.97c0-3.75,3.11-6.86,6.9-6.9
		C33.77,23.04,36.92,26.19,36.92,30.02z"/>
</g>
</svg>
