<?xml version="1.0" encoding="utf-8"?>
<!-- Generator: Adobe Illustrator 23.0.5, SVG Export Plug-In . SVG Version: 6.00 Build 0)  -->
<svg version="1.1" id="Capa_1" xmlns="http://www.w3.org/2000/svg" xmlns:xlink="http://www.w3.org/1999/xlink" x="0px" y="0px"
	 viewBox="0 0 60 60" style="enable-background:new 0 0 60 60;" xml:space="preserve">
<g>
	<path d="M29.96,0C13.42,0,0,13.42,0,29.96c-0.04,16.54,13.42,30,30.04,29.96C46.66,59.92,60,46.5,60,29.84
		C59.96,13.34,46.5-0.04,29.96,0z M45.06,25.94c0.08,0.9-0.27,1.09-1.09,1.01c-2.26-0.2-4.37-0.86-6.28-2.03
		c-0.35-0.23-0.74-0.47-1.29-0.78V36.4c-0.04,4.6-2.77,8.5-7.02,10.03c-4.41,1.56-9.09,0.27-12.05-3.32
		c-2.65-3.16-3.12-7.84-1.13-11.55c1.91-3.67,6.12-5.97,10.18-5.66c0.74,0.08,0.94,0.35,0.94,1.01c-0.08,1.25-0.08,2.5,0,3.75
		c0.04,0.82-0.16,0.98-1.01,0.82c-2.18-0.31-4.33,0.94-5.23,2.93c-0.9,2.11-0.35,4.53,1.37,5.97c1.72,1.4,4.25,1.56,6.09,0.27
		c1.56-1.05,2.26-2.57,2.26-4.49c-0.04-7.3,0-14.63-0.04-21.92c0-1.17,0.31-1.52,1.4-1.4c1.09,0.12,2.22,0.04,3.36,0
		c0.59,0,0.82,0.12,0.94,0.82c0.74,4.49,3.32,7.02,7.84,7.72c0.59,0.08,0.82,0.23,0.78,0.86C45.02,23.48,45.02,24.69,45.06,25.94z"
		/>
</g>
</svg>
