<?xml version="1.0" encoding="utf-8"?>
<!-- Generator: Adobe Illustrator 23.0.5, SVG Export Plug-In . SVG Version: 6.00 Build 0)  -->
<svg version="1.1" id="Capa_1" xmlns="http://www.w3.org/2000/svg" xmlns:xlink="http://www.w3.org/1999/xlink" x="0px" y="0px"
	 viewBox="0 0 60 60" style="enable-background:new 0 0 60 60;" xml:space="preserve">
<g>
	<path d="M33.87,0.23C11.39-2.5-5.95,19.55,2.4,40.47c1.35,3.4,1.48,6.3,0.38,9.62C1.69,53.28,0.97,56.56,0,60
		c5.02-1.3,9.79-2.52,14.51-3.78c0.89-0.25,1.65-0.21,2.49,0.21c6.03,2.94,12.32,3.74,18.9,2.48C50.07,56.22,60.45,43.33,59.99,29
		C59.52,14.18,48.43,1.99,33.87,0.23z M45.26,38.03c-0.3,3.15-2.7,5.59-5.95,5.92C38.98,44,38.6,44,37.84,44.04
		c-3.25-0.42-6.67-1.51-9.79-3.36c-5.36-3.11-9.15-7.69-11.98-13.1c-2.02-3.91-1.39-7.6,1.35-10.46c1.86-1.93,4.47-1.51,5.53,0.88
		c0.63,1.39,1.1,2.86,1.77,4.2c0.63,1.22,0.38,2.23-0.42,3.15c-0.38,0.46-0.76,0.92-1.18,1.39c-0.51,0.5-0.55,1.01-0.21,1.6
		c2.45,4.07,5.82,6.97,10.21,8.74c0.68,0.29,1.18,0.13,1.6-0.38c0.72-0.84,1.43-1.68,2.07-2.56c0.55-0.76,1.18-0.88,1.94-0.55
		c1.94,0.92,3.84,1.85,5.74,2.73C45.26,36.69,45.35,37.32,45.26,38.03z"/>
</g>
</svg>
